<svg width="74" height="68" viewBox="0 0 74 68" fill="none" xmlns="http://www.w3.org/2000/svg">
<path d="M67.6922 51.2142C71.324 50.6144 73.9958 47.3989 74 43.6226V35.9245C74 35.216 73.4404 34.6415 72.7502 34.6415H37.7341C37.0439 34.6415 36.4843 35.216 36.4843 35.9245V47.4717H34.0059V16.6792C34.0062 16.5059 33.9717 16.3343 33.9047 16.175L30.2565 7.44151V1.28302C30.2565 0.574471 29.6969 0 29.0067 0H6.50999C5.81978 0 5.26018 0.574471 5.26018 1.28302V7.44151L1.61197 16.1789C1.54542 16.3368 1.51105 16.5072 1.51073 16.6792V60.7548C-0.205262 62.1382 -0.503812 64.6877 0.843801 66.4493C1.594 67.43 2.74196 68.0019 3.95662 68H65.2513C65.7273 68.0027 66.1633 67.7275 66.3761 67.2905L68.5233 62.8679H74V60.3019H62.7054C65.5462 58.1342 67.3585 54.8317 67.6922 51.2142ZM67.7509 37.2075H71.5004V43.6226C71.4918 45.9556 69.9515 47.9892 67.7509 48.5725V37.2075ZM30.8614 15.3962H27.1519L29.0067 10.9557L30.8614 15.3962ZM31.5063 17.9623V47.4717H26.507V17.9623H31.5063ZM7.75981 2.56604H27.7568V6.41509H7.75981V2.56604ZM7.33362 8.98113H27.1119L24.4336 15.3962H4.65527L7.33362 8.98113ZM4.01036 17.9623H24.0074V47.4717H21.3515C20.2091 47.4714 19.1223 47.978 18.3707 48.8612C18.0508 49.245 17.8039 49.6871 17.6433 50.1647L11.5617 51.9481C10.014 52.4147 8.8948 53.7958 8.72966 55.4431L4.01036 58.9034V17.9623ZM3.95662 65.4339C3.32781 65.4347 2.76977 65.0207 2.57308 64.4075C2.36795 63.784 2.58542 63.0963 3.108 62.7152L9.09336 58.326L10.4782 65.4339H3.95662ZM13.0265 65.4339L11.218 56.1475C11.0734 55.3833 11.5199 54.6319 12.2479 54.4141L17.5321 52.8642L19.1894 65.4339H13.0265ZM21.7127 65.4339L19.9055 51.7326C19.7993 50.9129 20.3603 50.1599 21.1588 50.0509C21.2227 50.0422 21.287 50.0377 21.3515 50.0377H36.4856C36.4962 54.0842 38.3657 57.8885 41.5298 60.3019H31.5063V62.8679H36.983L38.2328 65.4339H21.7127ZM65.7287 62.8679L64.4789 65.4339H41.0274L39.7776 62.8679H65.7287ZM55.2315 60.3019H49.0037C43.4728 60.2948 38.9908 55.6937 38.9839 50.0159V37.2075H65.2513V50.0159C65.2452 55.6941 60.7627 60.2955 55.2315 60.3019Z" fill="white"/>
<path d="M50.2323 55.1698C46.7828 55.1656 43.9873 52.2958 43.9832 48.7547V47.4717H41.4836V48.7547C41.4898 53.7121 45.4031 57.7294 50.2323 57.7358H51.4821V55.1698H50.2323Z" fill="white"/>
<path d="M43.9832 42.3396H41.4836V44.9056H43.9832V42.3396Z" fill="white"/>
<path d="M65.8762 19.2453H50.8784C49.8431 19.2453 49.0037 18.3836 49.0037 17.3208C49.0037 16.2579 49.8431 15.3962 50.8784 15.3962H56.5026C59.9521 15.3921 62.7476 12.5223 62.7517 8.98113H60.252C60.252 11.1069 58.5734 12.8302 56.5026 12.8302H50.8784C48.4625 12.8302 46.5041 14.8407 46.5041 17.3208C46.5041 19.8008 48.4625 21.8113 50.8784 21.8113H65.8762C66.9115 21.8113 67.7509 22.673 67.7509 23.7358C67.7509 24.7987 66.9115 25.6604 65.8762 25.6604H47.7539C44.3044 25.6645 41.5089 28.5343 41.5048 32.0755H44.0044C44.0044 29.9497 45.6831 28.2264 47.7539 28.2264H65.8762C68.2921 28.2264 70.2505 26.2159 70.2505 23.7358C70.2505 21.2558 68.2921 19.2453 65.8762 19.2453Z" fill="white"/>
<path d="M14.0089 24.3774C11.2479 24.3774 9.00962 26.6751 9.00962 29.5094C9.00962 32.3438 11.2479 34.6415 14.0089 34.6415C16.7699 34.6415 19.0081 32.3438 19.0081 29.5094C19.0081 26.6751 16.7699 24.3774 14.0089 24.3774ZM14.0089 32.0755C12.6283 32.0755 11.5093 30.9267 11.5093 29.5094C11.5093 28.0922 12.6283 26.9434 14.0089 26.9434C15.3895 26.9434 16.5085 28.0922 16.5085 29.5094C16.5085 30.9267 15.3895 32.0755 14.0089 32.0755Z" fill="white"/>
<path d="M19.0081 37.2075H9.00962V39.7736H19.0081V37.2075Z" fill="white"/>
<path d="M19.0081 42.3396H9.00962V44.9056H19.0081V42.3396Z" fill="white"/>
</svg>
