<svg width="57" height="69" viewBox="0 0 57 69" fill="none" xmlns="http://www.w3.org/2000/svg">
<path d="M38.8971 6.03345C38.1717 6.03345 37.583 6.62216 37.583 7.34754C37.583 8.07292 38.1717 8.66163 38.8971 8.66163C39.6225 8.66163 40.2112 8.07292 40.2112 7.34754C40.2112 6.62216 39.6225 6.03345 38.8971 6.03345Z" fill="white"/>
<path d="M17.8717 6.03345C17.1463 6.03345 16.5576 6.62216 16.5576 7.34754C16.5576 8.07292 17.1463 8.66163 17.8717 8.66163C18.5971 8.66163 19.1858 8.07292 19.1858 7.34754C19.1858 6.62216 18.5971 6.03345 17.8717 6.03345Z" fill="white"/>
<path d="M55.715 65.8355L47.0194 56.7511C50.5324 56.6252 53.3519 53.7299 53.3519 50.1867V11.1937C53.3519 9.07048 52.6098 6.9971 51.2621 5.35541C49.9134 3.71411 48.024 2.58307 45.9426 2.17137C41.2787 1.24599 36.5035 0.776855 31.7497 0.776855H24.8073C20.2859 0.776855 15.5764 1.20998 10.8107 2.16243C6.52608 3.01961 3.41642 6.81353 3.41642 11.1831V50.1867C3.41642 53.7597 6.28376 56.6737 9.83799 56.7533L1.04422 65.8299C0.676932 66.2089 0.572068 66.7708 0.777986 67.2566C0.983641 67.7425 1.46026 68.0583 1.988 68.0583H11.3838C11.805 68.0583 12.2007 67.8563 12.4479 67.5152L16.4341 62.0135H40.4512L44.4373 67.5153C44.6845 67.8563 45.0803 68.0583 45.5015 68.0583H54.7658C55.2921 68.0583 55.7676 67.7442 55.9743 67.2604C56.181 66.7763 56.079 66.2158 55.715 65.8355ZM6.0446 50.1867V11.1831C6.0446 8.06178 8.26581 5.35186 11.3259 4.7395C15.6155 3.88218 20.1482 3.40504 24.8072 3.40504H31.7495C36.3322 3.40504 40.9352 3.85722 45.4316 4.74922C46.9184 5.04345 48.2679 5.85135 49.2309 7.02339C50.1935 8.19595 50.7236 9.67693 50.7236 11.1935V50.1867C50.7236 52.3604 48.9551 54.1289 46.7813 54.1289H9.98674C7.8131 54.1289 6.0446 52.3604 6.0446 50.1867ZM10.7132 65.4301H5.09083L13.4935 56.7571H16.9972L10.7132 65.4301ZM18.3383 59.3853L20.2426 56.7571H36.6428L38.5469 59.3853H18.3383ZM46.1721 65.4301L39.8884 56.7571H43.3871L51.6889 65.4301H46.1721Z" fill="white"/>
<path d="M46.7815 11.2893H9.98694C9.2613 11.2893 8.67285 11.8778 8.67285 12.6034V34.4173C8.67285 35.143 9.2613 35.7314 9.98694 35.7314H46.7815C47.5071 35.7314 48.0956 35.143 48.0956 34.4173V12.6034C48.0956 11.8778 47.5071 11.2893 46.7815 11.2893ZM27.0701 33.1032H11.301V13.9175H27.0701V33.1032ZM45.4674 33.1032H29.6983V13.9175H45.4674V33.1032Z" fill="white"/>
<path d="M33.6408 6.03345H23.1281C22.4024 6.03345 21.814 6.6219 21.814 7.34754C21.814 8.07318 22.4024 8.66163 23.1281 8.66163H33.6408C34.3664 8.66163 34.9549 8.07318 34.9549 7.34754C34.9549 6.6219 34.3664 6.03345 33.6408 6.03345Z" fill="white"/>
<path d="M42.8394 39.6741C39.941 39.6741 37.583 42.0321 37.583 44.9304C37.583 47.8288 39.941 50.1868 42.8394 50.1868C45.7377 50.1868 48.0957 47.8288 48.0957 44.9304C48.0957 42.0321 45.7377 39.6741 42.8394 39.6741ZM42.8394 47.5586C41.3902 47.5586 40.2112 46.3796 40.2112 44.9304C40.2112 43.4813 41.3902 42.3023 42.8394 42.3023C44.2886 42.3023 45.4676 43.4813 45.4676 44.9304C45.4676 46.3796 44.2886 47.5586 42.8394 47.5586Z" fill="white"/>
<path d="M13.9292 39.6741C11.0309 39.6741 8.67285 42.0321 8.67285 44.9304C8.67285 47.8288 11.031 50.1868 13.9292 50.1868C16.8276 50.1868 19.1856 47.8288 19.1856 44.9304C19.1856 42.0321 16.8276 39.6741 13.9292 39.6741ZM13.9292 47.5586C12.48 47.5586 11.301 46.3796 11.301 44.9304C11.301 43.4813 12.48 42.3023 13.9292 42.3023C15.3784 42.3023 16.5574 43.4813 16.5574 44.9304C16.5574 46.3796 15.3784 47.5586 13.9292 47.5586Z" fill="white"/>
<path d="M33.6408 40.988H23.1281C22.4024 40.988 21.814 41.5765 21.814 42.3021C21.814 43.0278 22.4024 43.6162 23.1281 43.6162H33.6408C34.3664 43.6162 34.9549 43.0278 34.9549 42.3021C34.9549 41.5765 34.3666 40.988 33.6408 40.988Z" fill="white"/>
<path d="M33.6408 46.2444H23.1281C22.4024 46.2444 21.814 46.8328 21.814 47.5585C21.814 48.2841 22.4024 48.8726 23.1281 48.8726H33.6408C34.3664 48.8726 34.9549 48.2841 34.9549 47.5585C34.9549 46.8328 34.3666 46.2444 33.6408 46.2444Z" fill="white"/>
</svg>
