<svg width="66" height="66" viewBox="0 0 66 66" fill="none" xmlns="http://www.w3.org/2000/svg">
<path d="M65.2902 18.6485C65.2902 15.7501 62.9322 13.3921 60.0339 13.3921H39.8663C39.431 12.1716 38.2746 11.2896 36.9059 11.2896H34.9347C32.7628 5.17538 26.9356 0.776855 20.0855 0.776855C13.2354 0.776855 7.40821 5.17538 5.23628 11.2896H3.26515C1.52634 11.2896 0.111328 12.7046 0.111328 14.4434V19.6998H2.21387V42.8278C1.05432 42.8278 0.111328 43.7708 0.111328 44.9303V47.0329C0.111328 48.1924 1.05432 49.1354 2.21387 49.1354V65.9558H63.1877V28.11H65.2902V18.6485ZM63.1877 18.6485V21.8023H37.9572V19.6998H40.0597V15.4947H60.0339C61.7727 15.4947 63.1877 16.9097 63.1877 18.6485ZM33.7521 42.8278V19.6998H35.8546V42.8278H33.7521ZM8.52151 28.11H14.8291V34.4176H8.52151V28.11ZM16.9317 28.11H23.2393V34.4176H16.9317V28.11ZM23.2393 19.6998V26.0074H16.9317V19.6998H23.2393ZM25.3419 28.11H31.6495V34.4176H25.3419V28.11ZM31.6495 26.0074H25.3419V19.6998H31.6495V26.0074ZM29.547 17.5972H10.6241V16.5459C10.6241 11.3295 14.868 7.08449 20.0855 7.08449C25.303 7.08449 29.547 11.3295 29.547 16.5459V17.5972ZM14.8291 19.6998V26.0074H8.52151V19.6998H14.8291ZM8.52151 36.5201H14.8291V42.8278H8.52151V36.5201ZM16.9317 36.5201H23.2393V42.8278H16.9317V36.5201ZM25.3419 36.5201H31.6495V42.8278H25.3419V36.5201ZM36.9059 13.3921C37.4862 13.3921 37.9572 13.8642 37.9572 14.4434V17.5972H35.8546V16.5459C35.8546 15.4663 35.7442 14.4119 35.5371 13.3921H36.9059ZM20.0855 2.8794C27.621 2.8794 33.7521 9.01042 33.7521 16.5459V17.5972H31.6495V16.5459C31.6495 10.17 26.4615 4.98195 20.0855 4.98195C13.7095 4.98195 8.52151 10.17 8.52151 16.5459V17.5972H6.41897V16.5459C6.41897 9.01042 12.55 2.8794 20.0855 2.8794ZM2.21387 14.4434C2.21387 13.8642 2.68484 13.3921 3.26515 13.3921H4.6339C4.4268 14.4119 4.31642 15.4663 4.31642 16.5459V17.5972H2.21387V14.4434ZM4.31642 19.6998H6.41897V42.8278H4.31642V19.6998ZM2.21387 44.9303H37.9572L37.9582 47.0329H2.21387V44.9303ZM21.1368 55.443H24.2906C24.8709 55.443 25.3419 55.9151 25.3419 56.4943V63.8532H21.1368V55.443ZM19.0342 63.8532H14.8291V56.4943C14.8291 55.9151 15.3001 55.443 15.8804 55.443H19.0342V63.8532ZM24.2906 53.3405H15.8804C14.1416 53.3405 12.7266 54.7555 12.7266 56.4943V63.8532H8.52151V49.1354H31.6495V63.8532H27.4444V56.4943C27.4444 54.7555 26.0294 53.3405 24.2906 53.3405ZM33.7521 49.1354H35.8546V63.8532H33.7521V49.1354ZM4.31642 49.1354H6.41897V63.8532H4.31642V49.1354ZM44.2648 59.3895C43.0443 58.8092 42.1622 57.2681 42.1622 55.443C42.1622 53.1239 43.5773 51.238 45.3161 51.238C47.0549 51.238 48.4699 53.1239 48.4699 55.443C48.4699 57.2681 47.5879 58.8092 46.3673 59.3895V55.443H44.2648V59.3895ZM46.3673 61.6235C47.652 61.3092 48.7621 60.4271 49.5212 59.2119C50.2802 60.4282 51.3903 61.3092 52.675 61.6235V63.8532H46.3673V61.6235ZM52.675 55.443V59.3895C51.4544 58.8092 50.5724 57.2681 50.5724 55.443C50.5724 53.1239 51.9874 51.238 53.7262 51.238C55.465 51.238 56.8801 53.1239 56.8801 55.443C56.8801 57.2681 55.998 58.8092 54.7775 59.3895V55.443H52.675ZM54.7775 63.8532V61.6235C57.1734 61.0369 58.9826 58.4896 58.9826 55.443C58.9826 51.9644 56.6246 49.1354 53.7262 49.1354C52.0064 49.1354 50.481 50.1373 49.5212 51.6742C48.5613 50.1373 47.0359 49.1354 45.3161 49.1354C42.4177 49.1354 40.0597 51.9644 40.0597 55.443C40.0597 58.4896 41.8689 61.0369 44.2648 61.6235V63.8532H37.9572V49.1354C39.1167 49.1354 40.0597 48.1924 40.0597 47.0329H61.0852V63.8532H54.7775ZM61.0852 44.9303H40.0597C40.0597 43.7708 39.1167 42.8278 37.9572 42.8278V28.11H61.0852V44.9303ZM37.9572 26.0074V23.9049H63.1877V26.0074H37.9572Z" fill="white"/>
</svg>
