<svg width="66" height="66" viewBox="0 0 66 66" fill="none" xmlns="http://www.w3.org/2000/svg">
<path d="M34.0999 30.8H31.8999V33.0001H34.0999V30.8Z" fill="white"/>
<path d="M36.3002 35.2H29.7002V37.4H36.3002V35.2Z" fill="white"/>
<path d="M56.1573 54.9977C55.7414 54.9958 55.3263 55.0335 54.9174 55.1101C54.3786 51.5106 51.0239 49.0293 47.4243 49.5681C44.5598 49.9969 42.3111 52.2457 41.8824 55.1101C41.1011 54.9605 40.2986 54.9605 39.5174 55.1101C38.9786 51.5106 35.6239 49.0293 32.0243 49.5681C29.1598 49.9969 26.9111 52.2457 26.4824 55.1101C25.7011 54.9605 24.8986 54.9605 24.1174 55.1101C23.5786 51.5106 20.2239 49.0293 16.6243 49.5681C13.7598 49.9969 11.5111 52.2457 11.0824 55.1101C7.51451 54.4418 4.08045 56.7923 3.4122 60.3601C3.33562 60.7689 3.29808 61.1841 3.29987 61.6001V64.9001C3.29987 65.5076 3.79239 66.0001 4.39987 66.0001H15.3999C16.0073 66.0001 16.4999 65.5076 16.4999 64.9001V61.6001C16.4977 61.2313 16.4645 60.8634 16.4009 60.5001H18.7989C18.7352 60.8634 18.7021 61.2313 18.6999 61.6001V64.9001C18.6999 65.5076 19.1924 66.0001 19.7999 66.0001H30.7999C31.4073 66.0001 31.8999 65.5076 31.8999 64.9001V61.6001C31.8977 61.2313 31.8645 60.8634 31.8009 60.5001H34.1989C34.1352 60.8634 34.1021 61.2313 34.0999 61.6001V64.9001C34.0999 65.5076 34.5924 66.0001 35.1999 66.0001H46.1999C46.8073 66.0001 47.2999 65.5076 47.2999 64.9001V61.6001C47.2977 61.2313 47.2645 60.8634 47.2009 60.5001H49.5989C49.5352 60.8634 49.5021 61.2313 49.4999 61.6001V64.9001C49.4999 65.5076 49.9924 66.0001 50.5999 66.0001H61.5999C62.2073 66.0001 62.6999 65.5076 62.6999 64.9001V61.6001C62.7164 57.9702 59.7872 55.0142 56.1573 54.9977ZM14.2999 63.8001H5.49987V61.6001C5.49987 59.17 7.46983 57.2001 9.89987 57.2001C12.3299 57.2001 14.2999 59.17 14.2999 61.6001V63.8001ZM19.5931 58.3001H15.6067C15.0312 57.309 14.2088 56.484 13.2197 55.9054C13.3136 53.4862 15.3508 51.6014 17.77 51.6953C20.0574 51.7841 21.8914 53.6181 21.9801 55.9054C20.9909 56.484 20.1685 57.309 19.5931 58.3001ZM29.6999 63.8001H20.8999V61.6001C20.8999 59.17 22.8698 57.2001 25.2999 57.2001C27.7299 57.2001 29.6999 59.17 29.6999 61.6001V63.8001ZM34.9931 58.3001H31.0067C30.4312 57.309 29.6088 56.484 28.6197 55.9054C28.7136 53.4862 30.7508 51.6014 33.17 51.6953C35.4574 51.7841 37.2912 53.6181 37.3801 55.9054C36.3909 56.484 35.5685 57.309 34.9931 58.3001ZM45.0999 63.8001H36.2999V61.6001C36.2999 59.17 38.2698 57.2001 40.6999 57.2001C43.1299 57.2001 45.0999 59.17 45.0999 61.6001V63.8001ZM50.3931 58.3001H46.4067C45.8312 57.309 45.0088 56.484 44.0197 55.9054C44.1136 53.4862 46.1508 51.6014 48.57 51.6953C50.8574 51.7841 52.6914 53.6181 52.7801 55.9054C51.7909 56.484 50.9685 57.309 50.3931 58.3001ZM60.4999 63.8001H51.6999V61.6001C51.6999 59.17 53.6698 57.2001 56.0999 57.2001C58.5299 57.2001 60.4999 59.17 60.4999 61.6001V63.8001Z" fill="white"/>
<path d="M64.9 0H1.1C0.492525 0 0 0.492525 0 1.1V5.5C0 6.10748 0.492525 6.6 1.1 6.6H3.3V36.3C3.3 36.9075 3.79253 37.4 4.4 37.4H24.6103L25.1174 40.7H24.2C23.5925 40.7 23.1 41.1925 23.1 41.8V46.2C23.1 46.8075 23.5925 47.3 24.2 47.3H41.8C42.4075 47.3 42.9 46.8075 42.9 46.2V41.8C42.9 41.1925 42.4075 40.7 41.8 40.7H40.8826L41.3897 37.4H61.6C62.2075 37.4 62.7 36.9075 62.7 36.3V6.6H64.9C65.5075 6.6 66 6.10748 66 5.5V1.1C66 0.492525 65.5075 0 64.9 0ZM40.7 45.1H25.3V42.9H40.7V45.1ZM25.4826 28.6H40.5174L38.6562 40.7H27.3438L25.4826 28.6ZM21.7591 26.4L21.2091 24.2H44.7909L44.2409 26.4H21.7591ZM60.5 35.2H41.7285L42.7438 28.6H45.1C45.6049 28.5999 46.0448 28.2561 46.167 27.7662L47.267 23.3662C47.414 22.7767 47.0554 22.1797 46.4659 22.0327C46.3789 22.011 46.2896 22 46.2 22H44V18.7C44 18.4082 43.884 18.1285 43.6777 17.9223L41.47 15.7135C41.6853 15.2732 41.7981 14.7901 41.8 14.3C41.8 12.4774 40.3226 11 38.5 11C36.6774 11 35.2 12.4774 35.2 14.3C35.2 16.1226 36.6774 17.6 38.5 17.6C38.9901 17.5981 39.4732 17.4853 39.9135 17.27L41.8 19.1554V22H24.2V19.1554L26.0865 17.27C26.5268 17.4853 27.01 17.5981 27.5 17.6C29.3226 17.6 30.8 16.1226 30.8 14.3C30.8 12.4774 29.3226 11 27.5 11C25.6774 11 24.2 12.4774 24.2 14.3C24.2019 14.7901 24.3147 15.2732 24.53 15.7135L22.3212 17.9223C22.1154 18.1287 21.9997 18.4085 22 18.7V22H19.8C19.1925 22.0001 18.7001 22.4928 18.7003 23.1003C18.7003 23.1899 18.7113 23.2792 18.733 23.3662L19.833 27.7662C19.9552 28.2561 20.3951 28.5999 20.9 28.6H23.2562L24.2715 35.2H5.5V6.6H60.5V35.2ZM39.6 14.3C39.6 14.9075 39.1075 15.4 38.5 15.4C37.8925 15.4 37.4 14.9075 37.4 14.3C37.4 13.6925 37.8925 13.2 38.5 13.2C39.1075 13.2 39.6 13.6925 39.6 14.3ZM26.4 14.3C26.4 13.6925 26.8925 13.2 27.5 13.2C28.1075 13.2 28.6 13.6925 28.6 14.3C28.6 14.9075 28.1075 15.4 27.5 15.4C26.8925 15.4 26.4 14.9075 26.4 14.3ZM63.8 4.4H2.2V2.2H63.8V4.4Z" fill="white"/>
</svg>
