<svg width="69" height="67" viewBox="0 0 69 67" fill="none" xmlns="http://www.w3.org/2000/svg">
<path fill-rule="evenodd" clip-rule="evenodd" d="M0 8.3974C0 3.77077 3.89223 0 8.64377 0H60.3562C65.1078 0 69 3.77077 69 8.3974V58.6026C69 63.2292 65.1078 67 60.3562 67H8.64377C3.89223 67 0 63.2292 0 58.6026V8.3974ZM8.64377 2.45044C5.26906 2.45044 2.51254 5.13463 2.51254 8.3974V58.6026C2.51254 61.8654 5.26906 64.5496 8.64377 64.5496H60.3562C63.7309 64.5496 66.4875 61.8654 66.4875 58.6026V8.3974C66.4875 5.13463 63.7309 2.45044 60.3562 2.45044H8.64377ZM18.4687 14.3443H35.6081C38.4515 14.3443 40.6353 14.6189 42.4318 15.2169C44.2389 15.8184 45.5901 16.7257 46.8029 17.8958C49.7515 20.3712 50.5313 23.6501 50.5313 27.045C50.5313 30.8636 49.3468 34.1373 46.7527 36.236C45.5412 37.2162 44.1988 38.0207 42.4011 38.5692C40.6237 39.1115 38.4556 39.3871 35.6081 39.3871H27.63V52.6557H18.4687V14.3443ZM20.9813 16.7948V50.2052H25.1175V36.9367H35.6081C38.3013 36.9367 40.1963 36.6744 41.6509 36.2305C43.0852 35.7929 44.1438 35.1629 45.1485 34.35C46.987 32.8627 48.0187 30.3986 48.0187 27.045C48.0187 23.9992 47.3275 21.5534 45.1352 19.7291L45.0985 19.6986L45.0643 19.6654C44.0697 18.6997 43.0283 18.0047 41.6202 17.536C40.1847 17.0581 38.3053 16.7948 35.6081 16.7948H20.9813ZM25.1175 19.3649H34.8694C37.68 19.3649 39.9817 20.1512 41.4134 22.0045C42.5419 23.4654 43.5132 24.8217 43.5132 27.0451C43.5132 28.2712 43.2999 29.2485 42.8991 30.1379C42.5108 30.9997 41.9663 31.7285 41.4134 32.4442L41.3596 32.5138L41.2963 32.5753C39.925 33.9066 38.1153 34.7252 35.2388 34.7252H25.1175V19.3649ZM27.63 21.8153V32.2748H35.2388C37.4787 32.2748 38.6234 31.688 39.4627 30.897C39.9875 30.2152 40.3496 29.7052 40.5989 29.152C40.8445 28.607 41.0006 27.9705 41.0006 27.0451C41.0006 25.6823 40.4943 24.887 39.4066 23.479C38.6221 22.4634 37.23 21.8153 34.8694 21.8153H27.63Z" fill="white"/>
</svg>
