<svg width="67" height="68" viewBox="0 0 67 68" fill="none" xmlns="http://www.w3.org/2000/svg">
<path d="M59.7183 44.412C59.6535 44.302 59.5854 44.1967 59.5173 44.1037C58.8406 43.1437 57.8345 42.5092 56.6866 42.3175C55.5442 42.126 54.3862 42.3991 53.4437 43.086L40.9593 52.1334H27.9167C27.3014 52.1334 26.8001 51.6257 26.8001 51.0001C26.8001 50.3746 27.3014 49.8668 27.9167 49.8668H35.1751C37.3302 49.8668 39.0835 48.0876 39.0835 45.9001C39.0835 45.8876 39.0823 45.7834 39.0812 45.7721C39.012 43.5859 37.1951 41.8814 35.0858 41.9336H20.5591C19.2716 41.9448 18.0175 42.413 17.0293 43.2493L11.5688 47.862C11.3141 48.0785 11.1668 48.397 11.1668 48.7336V62.3336C11.1668 62.9603 11.6671 63.4668 12.2834 63.4668H39.9891C41.8026 63.4646 43.5692 62.8163 44.9651 61.6433L58.5025 50.2908C60.3415 48.9611 60.8752 46.3795 59.7183 44.412ZM57.1444 48.4942L43.5422 59.8967C42.5439 60.7354 41.281 61.1977 39.9878 61.2H13.4V49.2648L18.4596 44.9898C19.0537 44.4878 19.8052 44.2066 20.569 44.1999L35.1214 44.1988C36.0471 44.1976 36.8198 44.9083 36.8501 45.9C36.8501 46.8373 36.0985 47.6 35.1751 47.6H27.9167C26.0697 47.6 24.5667 49.1255 24.5667 51C24.5667 52.8745 26.0697 54.4 27.9167 54.4H41.3167C41.549 54.4 41.7756 54.3263 41.9677 54.1892L54.7446 44.9287C55.2047 44.5933 55.7641 44.463 56.3247 44.5535C56.8842 44.6476 57.3733 44.9558 57.7094 45.4318C57.7429 45.4783 57.7729 45.5259 57.802 45.5746C58.3672 46.5347 58.1047 47.796 57.1444 48.4942Z" fill="white"/>
<path d="M12.2499 46.4667H0V48.7334H11.1331V65.7334H0V68H12.2499C12.8662 68 13.3665 67.4935 13.3665 66.8667V47.6C13.3665 46.9733 12.8662 46.4667 12.2499 46.4667Z" fill="white"/>
<path d="M5.58339 56.6667C3.73643 56.6667 2.23338 58.1922 2.23338 60.0667C2.23338 61.9412 3.73643 63.4667 5.58339 63.4667C7.43034 63.4667 8.93339 61.9412 8.93339 60.0667C8.93339 58.1922 7.43034 56.6667 5.58339 56.6667ZM5.58339 61.2C4.96809 61.2 4.46676 60.6923 4.46676 60.0667C4.46676 59.4412 4.96809 58.9334 5.58339 58.9334C6.19869 58.9334 6.70001 59.4412 6.70001 60.0667C6.70001 60.6923 6.19869 61.2 5.58339 61.2Z" fill="white"/>
<path d="M65.8835 35.1333H1.11663C0.500276 35.1333 0 35.6398 0 36.2666C0 40.6401 3.50638 44.1999 7.81664 44.1999H59.1834C63.4926 44.1999 67 40.6401 67 36.2666C67.0001 35.64 66.501 35.1333 65.8835 35.1333ZM59.1835 41.9333H7.81664C5.11988 41.9333 2.86426 39.9828 2.34605 37.4H64.6539C64.1359 39.9828 61.8802 41.9333 59.1835 41.9333Z" fill="white"/>
<path d="M33.5001 5.66671C17.4915 5.66671 4.46663 18.8859 4.46663 35.1334V36.2667C4.46663 36.8935 4.96691 37.4 5.58326 37.4H61.4167C62.0343 37.4 62.5334 36.8935 62.5334 36.2667V35.1334C62.5335 18.8858 49.5097 5.66671 33.5001 5.66671ZM6.70001 35.1333C6.70001 20.1358 18.7231 7.93329 33.5001 7.93329C48.277 7.93329 60.3001 20.1358 60.3001 35.1333H6.70001Z" fill="white"/>
<path d="M15.1331 18.5945C14.3526 19.4853 13.629 20.4385 12.9825 21.429L14.8439 22.6813C15.4336 21.7791 16.0923 20.9099 16.8025 20.0996L15.1331 18.5945Z" fill="white"/>
<path d="M33.5001 10.2C27.2289 10.2035 21.258 12.6083 16.6887 16.9683L18.2185 18.6195C22.3725 14.6551 27.8006 12.47 33.5012 12.4667L33.5001 10.2Z" fill="white"/>
<path d="M36.8501 0H30.1501V2.26671H36.8501V0Z" fill="white"/>
<path d="M34.6168 1.13329H32.3834V6.8H34.6168V1.13329Z" fill="white"/>
</svg>
