<svg width="68" height="68" viewBox="0 0 68 68" fill="none" xmlns="http://www.w3.org/2000/svg">
<path d="M43.0667 43.181V32.8666C43.0667 30.992 41.5412 29.4666 39.6667 29.4666H7.93333C6.0588 29.4666 4.53333 30.992 4.53333 32.8666V43.181C1.95047 43.708 0 45.9974 0 48.7332V55.5332V66.8666C0 67.4922 0.507733 67.9999 1.13333 67.9999H5.66667C6.29227 67.9999 6.8 67.4922 6.8 66.8666V63.4666H40.8V66.8666C40.8 67.4922 41.3077 67.9999 41.9333 67.9999H46.4667C47.0923 67.9999 47.6 67.4922 47.6 66.8666V55.5332V48.7332C47.6 45.9974 45.6495 43.708 43.0667 43.181ZM6.8 32.8666C6.8 32.2421 7.30887 31.7332 7.93333 31.7332H39.6667C40.2911 31.7332 40.8 32.2421 40.8 32.8666V43.0666H38.5333V38.5332C38.5333 36.6587 37.0079 35.1332 35.1333 35.1332H28.3333C26.4588 35.1332 24.9333 36.6587 24.9333 38.5332V43.0666H22.6667V38.5332C22.6667 36.6587 21.1412 35.1332 19.2667 35.1332H12.4667C10.5921 35.1332 9.06667 36.6587 9.06667 38.5332V43.0666H6.8V32.8666ZM36.2667 38.5332V43.0666H27.2V38.5332C27.2 37.9088 27.7089 37.3999 28.3333 37.3999H35.1333C35.7578 37.3999 36.2667 37.9088 36.2667 38.5332ZM20.4 38.5332V43.0666H11.3333V38.5332C11.3333 37.9088 11.8422 37.3999 12.4667 37.3999H19.2667C19.8911 37.3999 20.4 37.9088 20.4 38.5332ZM45.3333 65.7332H43.0667V62.3332C43.0667 61.7076 42.5589 61.1999 41.9333 61.1999H5.66667C5.04107 61.1999 4.53333 61.7076 4.53333 62.3332V65.7332H2.26667V56.6666H45.3333V65.7332ZM45.3333 54.3999H2.26667V48.7332C2.26667 46.8587 3.79213 45.3332 5.66667 45.3332H10.2H21.5333H26.0667H37.4H41.9333C43.8079 45.3332 45.3333 46.8587 45.3333 48.7332V54.3999Z" fill="white"/>
<path d="M66.875 43H51.125C50.504 43 50 43.7 50 44.5625V57.0625V68H52.25V58.625H65.75V68H68V57.0625V44.5625C68 43.7 67.496 43 66.875 43ZM65.75 55.5H52.25V46.125H65.75V55.5Z" fill="white"/>
<path d="M61.1998 47.6001H56.6665V49.8668H61.1998V47.6001Z" fill="white"/>
<path d="M64.5425 33.6407L62.2758 26.8407C62.1206 26.3783 61.6888 26.0667 61.2003 26.0667H56.667C56.1785 26.0667 55.7467 26.3783 55.5915 26.8419L53.3248 33.6419C53.2092 33.9875 53.2681 34.3672 53.4812 34.663C53.6943 34.9588 54.0365 35.1333 54.4003 35.1333H57.8003V38.5333H55.5337V40.8H62.3336V38.5333H60.067V35.1333H63.467C63.8308 35.1333 64.173 34.9588 64.3861 34.6619C64.5992 34.3661 64.657 33.9864 64.5425 33.6407ZM55.9723 32.8667L57.4841 28.3333H60.3843L61.895 32.8667H55.9723Z" fill="white"/>
<path d="M44.1625 8.69544L41.2218 9.19028C41.2919 9.59718 41.3261 10.0145 41.3261 10.4333C41.3261 14.5426 37.983 17.8857 33.8738 17.8857C29.7645 17.8857 26.4214 14.5426 26.4214 10.4333C26.4214 6.32409 29.7645 2.98095 33.8738 2.98095C34.7263 2.98095 35.564 3.12404 36.3599 3.40574L37.3525 0.5947C36.2362 0.199724 35.0661 0 33.8738 0C28.1205 0 23.4404 4.6801 23.4404 10.4333C23.4404 16.1866 28.1205 20.8667 33.8738 20.8667C39.627 20.8667 44.3071 16.1866 44.3071 10.4333C44.3071 9.84907 44.2579 9.2648 44.1625 8.69544Z" fill="white"/>
<path d="M43.2536 0.436768L33.8741 9.81633L31.9469 7.88914L29.8394 9.99667L32.8203 12.9776C33.111 13.2683 33.4925 13.4143 33.8741 13.4143C34.2556 13.4143 34.6372 13.2683 34.9278 12.9776L45.3612 2.5443L43.2536 0.436768Z" fill="white"/>
</svg>
