<svg width="72" height="68" viewBox="0 0 72 68" fill="none" xmlns="http://www.w3.org/2000/svg">
<path d="M65.1495 0L12.7969 0C12.2064 0 12.3047 0.494521 12.3047 1.10416C12.3047 1.71381 11.7142 2.20776 12.3047 2.20776H65.1495C67.7477 2.20776 69.8615 4.39001 69.8615 7.07187V46.3562C69.8615 49.0386 67.7477 51.2203 65.1495 51.2203H6.84998C4.25226 51.2203 2.13849 49.0386 2.13849 46.3562V7.07187C2.13849 4.39001 4.25226 2.20776 6.84998 2.20776H13.4736C14.0641 2.20776 14.5432 1.71381 14.5432 1.10416C14.5432 0.494521 14.0641 0 13.4736 0H6.84998C3.07288 0 0 3.17242 0 7.07187V46.3562C0 50.2557 3.07288 53.4281 6.84998 53.4281H24.0447L21.9501 60.4937H18.0236C16.0186 60.4937 14.3882 62.1775 14.3882 64.2469C14.3882 66.3168 16.0186 68 18.0236 68H53.9764C55.9808 68 57.6118 66.3168 57.6118 64.2469C57.6118 62.1775 55.9808 60.4937 53.9764 60.4937H50.0499L47.9553 53.4281H65.1495C68.9271 53.4281 72 50.2557 72 46.3562V7.07187C72 3.17242 68.9271 0 65.1495 0ZM55.4733 64.2474C55.4733 65.0992 54.8015 65.7928 53.9764 65.7928H18.0236C17.198 65.7928 16.5267 65.0992 16.5267 64.2474C16.5267 63.3951 17.198 62.702 18.0236 62.702H53.9764C54.8015 62.702 55.4733 63.3951 55.4733 64.2474ZM47.813 60.4937H24.187L26.2809 53.4286H45.7191L47.813 60.4937Z" fill="white"/>
<path d="M64.941 41.999C65.5262 41.999 66 44.123 66 43.5017V9.20791C66 8.54154 65.4903 8 64.8632 8H7.13464C6.50912 8 6 8.54154 6 9.20791V45.8753C6 46.4966 6.47376 47 7.05849 47H64.941C65.5262 47 66 46.4966 66 45.8753V41.999C66 41.3777 65.5262 40.8743 64.941 40.8743C64.3562 40.8743 63.8825 41.3777 63.8825 41.999V44.75H8.11753V10.25H63.8825V42.7619C63.8825 43.3838 64.3562 41.999 64.941 41.999Z" fill="white"/>
</svg>
