<svg width="165" height="23" viewBox="0 0 165 23" fill="none" xmlns="http://www.w3.org/2000/svg">
<path d="M14.0225 12.6187L15.7399 6.03177H17.8211L13.6184 22.196H11.5574L13.6184 14.2957H4.14208L2.08114 22.196H0L4.2027 6.03177H6.28384L4.56639 12.6187H14.0225Z" fill="white"/>
<path d="M21.2559 13.4269C22.7107 12.3964 24.2867 11.8913 25.984 11.8913C27.4589 11.8913 28.651 12.2752 29.5401 13.0632C30.4493 13.831 30.8938 14.8211 30.8938 16.0132C30.8938 16.195 30.8736 16.3769 30.8534 16.5789C30.813 16.781 30.7726 16.983 30.7322 17.2053C30.3685 18.6803 29.4391 19.9128 27.9843 20.9433C26.5295 21.9737 24.9535 22.4789 23.236 22.4789C21.7611 22.4789 20.5689 22.095 19.6799 21.307C18.7707 20.519 18.3262 19.5491 18.3464 18.357C18.3464 18.1751 18.3666 17.9933 18.3868 17.7912C18.407 17.5892 18.4474 17.4073 18.4878 17.2053C18.8717 15.7101 19.8011 14.4574 21.2559 13.4269ZM20.4477 17.67C20.4275 17.8317 20.4073 17.9731 20.4073 18.1145C20.4073 18.9429 20.6902 19.6097 21.2761 20.1351C21.8621 20.6604 22.6501 20.9029 23.6199 20.9029C24.812 20.9029 25.8829 20.5594 26.8528 19.8522C27.8024 19.1652 28.4288 18.2762 28.6915 17.1851C28.7319 17.0032 28.7723 16.8416 28.7925 16.68C28.8127 16.5183 28.8329 16.3567 28.8329 16.195C28.8329 15.3666 28.5298 14.6998 27.9439 14.2149C27.3579 13.7098 26.5497 13.4673 25.5394 13.4673C24.3675 13.4673 23.2967 13.8108 22.347 14.518C21.3974 15.2252 20.7912 16.1142 20.5083 17.2053C20.4881 17.3669 20.4679 17.5286 20.4477 17.67Z" fill="white"/>
<path d="M34.4905 22.196H32.47L34.6723 13.73H33.46L33.8641 12.1338H35.0764L36.0059 8.49681H38.0264L37.0768 12.1338H39.1175L38.7134 13.73H36.6727L34.4905 22.196Z" fill="white"/>
<path d="M40.9964 17.5286C40.9762 17.67 40.956 17.8114 40.9358 17.9327C40.9156 18.0539 40.9156 18.1953 40.9156 18.3166C40.9156 19.1046 41.1783 19.731 41.6834 20.2159C42.1885 20.6806 42.8755 20.9231 43.7039 20.9231C44.1484 20.9231 44.5323 20.8827 44.896 20.8018C45.2597 20.721 45.6032 20.5998 45.9669 20.4179C46.27 20.2563 46.5933 20.0542 46.8963 19.7916C47.2196 19.5289 47.5429 19.2258 47.9066 18.8419L49.3816 19.6501C48.5936 20.519 47.6641 21.2059 46.6337 21.7313C45.583 22.2364 44.4717 22.4991 43.2796 22.4991C41.8854 22.4991 40.7944 22.1556 39.9861 21.4484C39.1779 20.7614 38.794 19.832 38.8142 18.6601C38.8142 18.4378 38.8344 18.1953 38.8546 17.9529C38.8951 17.7104 38.9355 17.4478 38.9961 17.1851C39.4002 15.6495 40.2488 14.3968 41.5622 13.4067C42.8553 12.4166 44.3303 11.9317 45.9871 11.9317C47.5025 11.9317 48.5936 12.2954 49.2806 13.043C49.9473 13.7906 50.2908 14.6998 50.2908 15.8111C50.2908 16.094 50.2706 16.3769 50.2302 16.6597C50.1898 16.9426 50.1292 17.2457 50.0484 17.5488L40.9964 17.5286ZM48.3107 16.0334C48.3107 16.0334 48.3107 16.0132 48.3107 15.993C48.3107 15.9728 48.3107 15.9526 48.3107 15.9526C48.3107 15.1848 48.0683 14.5988 47.5631 14.1543C47.0782 13.7098 46.4114 13.4875 45.583 13.4875C45.5426 13.4875 45.5224 13.4875 45.482 13.4875C45.4416 13.4875 45.4012 13.4875 45.3809 13.4875C44.5727 13.5279 43.8049 13.8108 43.0978 14.2957C42.3704 14.7807 41.8652 15.3868 41.5419 16.094H48.3309C48.3107 16.0536 48.3107 16.0334 48.3107 16.0334Z" fill="white"/>
<path d="M53.8471 22.196H51.8669L56.4535 4.51637H58.4337L53.8471 22.196Z" fill="white"/>
<path d="M74.8608 15.8717L81.9124 6.03177H87.1456L75.0426 22.196H71.2845L67.6677 6.03177H72.9211L74.8608 15.8717Z" fill="white"/>
<path d="M90.3174 8.01188C92.7016 6.35505 95.3687 5.54684 98.2985 5.54684C100.844 5.54684 102.865 6.1732 104.36 7.40573C105.855 8.63825 106.623 10.2345 106.623 12.1944C106.623 12.4975 106.603 12.8207 106.542 13.1642C106.502 13.5077 106.421 13.8512 106.34 14.1745C105.714 16.6395 104.198 18.6803 101.814 20.3169C99.43 21.9535 96.7629 22.7617 93.8331 22.7617C91.2873 22.7617 89.2667 22.1556 87.7715 20.9231C86.2763 19.6905 85.5085 18.1145 85.5085 16.1748C85.5085 15.8515 85.5287 15.5282 85.5894 15.1848C85.6298 14.8615 85.7106 14.518 85.7914 14.1745C86.4178 11.7094 87.9332 9.66872 90.3174 8.01188ZM90.7215 14.6796C90.7013 14.8413 90.7013 15.0231 90.7013 15.1848C90.7013 16.195 91.0852 17.0234 91.8732 17.7104C92.641 18.3974 93.6513 18.7207 94.904 18.7207C96.3386 18.7207 97.6923 18.2762 98.9451 17.3871C100.198 16.4981 100.986 15.4272 101.289 14.1947C101.329 14.0129 101.37 13.8512 101.39 13.6694C101.41 13.4875 101.43 13.3259 101.43 13.1642C101.41 12.154 101.026 11.3053 100.258 10.6386C99.4906 9.9718 98.4803 9.62831 97.2478 9.62831C95.793 9.62831 94.4393 10.0728 93.1865 10.9619C91.9338 11.8509 91.1458 12.9218 90.8225 14.1947C90.7821 14.3361 90.7417 14.4978 90.7215 14.6796Z" fill="white"/>
<path d="M112.685 18.6399H118.504L117.575 22.196H106.947L111.109 6.03177H115.938L112.685 18.6399Z" fill="white"/>
<path d="M142.71 9.5879L142.003 12.2752H147.458L146.529 15.8313H141.073L140.346 18.6197H146.084L145.155 22.1758H134.607L138.77 6.01157H149.337L148.408 9.5677H142.71V9.5879Z" fill="white"/>
<path d="M163.703 22.196H157.682L154.671 15.993L153.055 22.196H148.246L152.408 6.03177H159.945C161.481 6.03177 162.693 6.35506 163.602 6.98142C164.491 7.62799 164.956 8.53722 164.956 9.74954C164.956 9.95159 164.936 10.1739 164.915 10.4163C164.875 10.6588 164.835 10.881 164.774 11.1235C164.491 12.255 163.885 13.2046 162.956 13.9926C162.026 14.7807 160.915 15.306 159.581 15.5485L163.703 22.196ZM156.025 13.2653C156.227 13.2653 156.449 13.2451 156.672 13.2248C157.359 13.1844 157.985 13.0228 158.591 12.7601C159.197 12.4975 159.581 11.9923 159.763 11.2649C159.783 11.2043 159.783 11.1437 159.804 11.0831C159.804 11.0225 159.824 10.9821 159.844 10.9214C159.844 10.881 159.844 10.8608 159.844 10.8406C159.844 10.8204 159.844 10.78 159.844 10.7598C159.824 10.2143 159.561 9.83036 159.036 9.64851C158.51 9.44646 157.945 9.34544 157.338 9.30503C157.177 9.28482 157.015 9.28482 156.854 9.28482C156.692 9.28482 156.53 9.28482 156.389 9.28482L155.379 13.2855C155.601 13.2855 155.803 13.2653 156.025 13.2653Z" fill="white"/>
<path d="M120.969 22.196L127.677 22.1758L131.799 7.26429L135.133 8.92112L136.487 3.58693L130.203 0.394501L122.06 3.60714L120.625 9.02215L124.768 7.56737L120.969 22.196Z" fill="white"/>
</svg>
